<svg xmlns="http://www.w3.org/2000/svg" width="1080" height="1080" viewBox="0 0 1080 1080" version="1.1"><path d="M 316.500 10.131 C 302.437 10.938, 294.279 12.405, 280.022 16.693 C 232.334 31.035, 192.878 67.329, 174.577 113.685 C 172.583 118.737, 165.156 144.682, 158.073 171.339 C 150.991 197.997, 144.879 220.805, 144.493 222.023 C 143.312 225.742, 145.259 223.976, 154.986 212.500 C 160.115 206.450, 172.228 193.616, 181.905 183.980 C 256.833 109.369, 350.300 61.367, 454.500 43.983 C 461.650 42.790, 467.646 41.672, 467.825 41.498 C 468.275 41.062, 470.115 41.569, 415.005 26.944 C 387.783 19.720, 362.133 13.147, 358.005 12.336 C 347.775 10.327, 329.766 9.370, 316.500 10.131 M 844.036 142.329 C 844.841 143.059, 850.225 147.494, 856 152.183 C 887.926 178.107, 920.702 213.215, 945.451 248 C 990.411 311.190, 1019.468 381.617, 1032.322 458.552 C 1034.146 469.466, 1035.886 477.969, 1036.189 477.448 C 1037.664 474.915, 1067.140 361.267, 1068.467 353 C 1070.504 340.311, 1070.470 314.706, 1068.399 301.619 C 1059.436 244.983, 1019.846 195.710, 966.326 174.581 C 958.876 171.640, 846.898 141.020, 843.536 141.004 C 843.005 141.002, 843.230 141.598, 844.036 142.329 M 38.151 623.183 C 34.146 635.851, 12.758 719.381, 11.499 727.265 C 9.426 740.256, 9.461 764.860, 11.572 778.196 C 20.565 835.020, 60.078 884.261, 113.656 905.411 C 122.246 908.802, 223.457 936.351, 225.185 935.769 C 225.623 935.621, 220.248 930.780, 213.241 925.012 C 197.240 911.841, 165.705 880.415, 152.064 864.046 C 94.898 795.452, 57.648 716.670, 41.930 631.118 C 40.875 625.376, 39.829 620.496, 39.606 620.272 C 39.382 620.049, 38.727 621.359, 38.151 623.183 M 927.865 855.244 C 859.897 939.992, 764.699 1001.035, 659.161 1027.543 C 649.625 1029.938, 634.663 1033.158, 625.912 1034.699 C 617.161 1036.239, 610.003 1037.725, 610.006 1038 C 610.017 1038.928, 718.416 1067.129, 727.500 1068.567 C 739.707 1070.500, 765.643 1070.414, 778.381 1068.399 C 836.717 1059.167, 887.481 1017.067, 907.277 961.500 C 910.372 952.813, 939.249 844.248, 938.813 842.940 C 938.639 842.416, 933.712 847.953, 927.865 855.244" stroke="none" fill="#040404" fill-rule="evenodd"/><path d="M 506.500 81.101 C 364.081 91.702, 234.835 167.359, 156.471 286 C 95.267 378.659, 69.865 487.426, 83.603 598 C 99.935 729.440, 173.821 848.774, 284.500 922.467 C 293.850 928.692, 306.900 936.835, 313.500 940.561 C 399.769 989.267, 498.860 1008.715, 598 996.397 C 763.547 975.828, 906.671 864.633, 967.921 709 C 1036.164 535.601, 993.891 339.577, 860.305 209.973 C 801.444 152.867, 730.354 113.238, 651.500 93.577 C 605.840 82.193, 552.959 77.642, 506.500 81.101 M 389.863 205.006 C 334.843 213.731, 292.330 254.187, 280.338 309.232 C 277.831 320.737, 277.797 348.174, 280.275 359.692 C 291.927 413.854, 333.505 454.281, 386.926 463.392 C 398.885 465.432, 419.091 465.461, 430.619 463.454 C 484.511 454.075, 526.520 412.709, 537.164 358.539 C 541.059 338.716, 539.356 312.994, 532.860 293.528 C 520.022 255.059, 488.920 223.651, 451.124 210.988 C 446.272 209.363, 439.197 207.330, 435.401 206.471 C 427.242 204.626, 398.162 203.690, 389.863 205.006 M 722.204 268.103 C 691.563 272.242, 664.278 286.202, 643.096 308.580 C 609.498 344.073, 598.742 395.252, 615.121 441.688 C 630.309 484.751, 666.757 516.441, 712.266 526.153 C 725.922 529.067, 749.507 529.303, 761.976 526.650 C 790.041 520.681, 811.649 509.167, 831.075 489.831 C 848.850 472.137, 860.877 449.503, 866.612 422.947 C 869.087 411.489, 869.116 383.842, 866.665 373 C 860.483 345.657, 848.836 323.989, 830.423 305.577 C 811.713 286.866, 788.470 274.632, 761.926 269.522 C 751.423 267.500, 731.847 266.801, 722.204 268.103 M 529.402 485.953 C 510.140 488.944, 493.927 500.976, 485.543 518.500 C 469.724 551.565, 488.339 590.303, 524.460 599.485 C 536.897 602.646, 549.707 601.126, 562.500 594.970 C 576.232 588.363, 586.038 577.725, 591.764 563.225 C 594.146 557.191, 594.423 555.164, 594.457 543.500 C 594.499 529.082, 593.186 523.913, 586.762 513.194 C 575.364 494.178, 550.987 482.601, 529.402 485.953 M 325.500 552.075 C 303.173 555.145, 281.801 563.869, 263.630 577.329 C 237.860 596.419, 220.552 623.883, 213.388 657.053 C 210.913 668.511, 210.884 696.158, 213.335 707 C 222.771 748.733, 247.580 781.154, 283.719 798.979 C 303.071 808.523, 320.233 812.434, 342.500 812.372 C 365.316 812.308, 383.066 807.896, 403.204 797.281 C 460.045 767.323, 486.412 699.361, 464.879 638.312 C 449.681 595.222, 412.747 563.143, 367.734 553.939 C 355.946 551.528, 335.909 550.644, 325.500 552.075 M 648.555 616.614 C 601.835 625.048, 562.411 658.985, 547.406 703.686 C 538.681 729.676, 538.581 760.825, 547.140 786.472 C 560.197 825.600, 591.555 856.853, 630.404 869.461 C 646.255 874.605, 652.571 875.504, 672.500 875.458 C 688.708 875.421, 691.592 875.144, 701.472 872.674 C 751.613 860.141, 788.541 821.816, 799.662 770.768 C 802.169 759.263, 802.203 731.826, 799.725 720.308 C 788.073 666.146, 746.495 625.719, 693.074 616.608 C 681.454 614.626, 659.550 614.629, 648.555 616.614" stroke="none" fill="#ec145c" fill-rule="evenodd"/></svg>